# xmcd
#
# Track frame offsets:
#   150
#   22712
#   40405
#   55917
#   70980
#   88470
#   105690
#   119165
#   146692
#   164015
#   178310
#   192597
#   209270
#
# Disc length: 2996 seconds
#
# Revision: 0
# Processed by: cddbd v1.4PL0 Copyright (c) Steve Scherf et al.
# Submitted via: uFREEDB ActiveX Control 1.5
#
DISCID=ce0bb20d
DTITLE=Musical JM - A Princesa e o Pobretão
DYEAR=1900
DGENRE=Bandinha
TTITLE0=Artistas Convidados
TTITLE1=A princesa e o pobretão
TTITLE2=Patricinhas do baile
TTITLE3=Ainda sou seu namorado
TTITLE4=Drama
TTITLE5=Depois do baile
TTITLE6=Feliz aniversário ao vivo
TTITLE7=O último baile ao vivo
TTITLE8=Manda ela embora
TTITLE9=Gordinha
TTITLE10=Meus bens pra lá
TTITLE11=Fruto do baile
TTITLE12=Para você mamãe
EXTD=
EXTT0=
EXTT1=
EXTT2=
EXTT3=
EXTT4=
EXTT5=
EXTT6=
EXTT7=
EXTT8=
EXTT9=
EXTT10=
EXTT11=
EXTT12=
PLAYORDER=
